# xmcd CD database file
#
# Track frame offsets:
#	150
#	9942
#	28995
#	38902
#	57502
#	74087
#	84912
#	97665
#	117247
#	131752
#	145300
#	159565
#	173065
#
# Disc length: 2521 seconds
#
# Revision: 0
# Processed by: cddbd v1.4PL0 Copyright (c) Steve Scherf et al.
# Submitted via: Feurio! 1.63 - http://www.feurio.com
#
DISCID=ad09d70d
DTITLE=Bill Carter - Stomping Grounds
DYEAR=1989
DGENRE=Bluesrock
TTITLE0=Let It Rip
TTITLE1=Ripped The Heart
TTITLE2=My First Love (Was Rock And Roll)
TTITLE3=Mrs. Jones
TTITLE4=Rock-A-Bye Hotel
TTITLE5=Dance Dance Dance
TTITLE6=Prairie Lee
TTITLE7=Willy The Wimp (And His Cadillac Coffin)
TTITLE8='67 Buick A. F.
TTITLE9=Road Block
TTITLE10=I'll Make It Right
TTITLE11=It's Time You Knew
TTITLE12=I Need A Break
EXTD=YEAR:1989 Crosscut Records
EXTT0=
EXTT1=
EXTT2=
EXTT3=
EXTT4=
EXTT5=
EXTT6=
EXTT7=
EXTT8=
EXTT9=
EXTT10=
EXTT11=
EXTT12=
PLAYORDER=
